<?xml version="1.0" encoding="UTF-8" standalone="no"?>
<!-- Created with Inkscape (http://www.inkscape.org/) -->

<svg
   xmlns:dc="http://purl.org/dc/elements/1.1/"
   xmlns:cc="http://creativecommons.org/ns#"
   xmlns:rdf="http://www.w3.org/1999/02/22-rdf-syntax-ns#"
   xmlns:svg="http://www.w3.org/2000/svg"
   xmlns="http://www.w3.org/2000/svg"
   xmlns:xlink="http://www.w3.org/1999/xlink"
   xmlns:sodipodi="http://sodipodi.sourceforge.net/DTD/sodipodi-0.dtd"
   xmlns:inkscape="http://www.inkscape.org/namespaces/inkscape"
   width="1024"
   height="1024"
   id="svg2"
   version="1.1"
   inkscape:version="0.48.3.1 r9886"
   sodipodi:docname="Engine Main.svg"
   enable-background="new"
   inkscape:export-filename="/home/nick/Ratman/Assets/3D Assets/Bus/Textures/Engine Bump.png"
   inkscape:export-xdpi="90"
   inkscape:export-ydpi="90">
  <defs
     id="defs4">
    <pattern
       inkscape:collect="always"
       xlink:href="#Strips1_1"
       id="pattern11310"
       patternTransform="matrix(2.5000001,0,0,2.8571476,-35.714286,934.28571)" />
    <pattern
       inkscape:stockid="Stripes 1:1"
       id="Strips1_1"
       patternTransform="translate(0,0) scale(10,10)"
       height="1"
       width="2"
       patternUnits="userSpaceOnUse"
       inkscape:collect="always">
      <rect
         id="rect10591"
         height="2"
         width="1"
         y="-0.5"
         x="0"
         style="fill:black;stroke:none" />
    </pattern>
    <filter
       inkscape:collect="always"
       id="filter9020">
      <feBlend
         inkscape:collect="always"
         mode="multiply"
         in2="BackgroundImage"
         id="feBlend9022" />
    </filter>
  </defs>
  <sodipodi:namedview
     id="base"
     pagecolor="#ffffff"
     bordercolor="#666666"
     borderopacity="1.0"
     inkscape:pageopacity="0.0"
     inkscape:pageshadow="2"
     inkscape:zoom="0.98994949"
     inkscape:cx="477.74815"
     inkscape:cy="311.06618"
     inkscape:document-units="px"
     inkscape:current-layer="layer5"
     showgrid="false"
     inkscape:snap-page="false"
     inkscape:window-width="1680"
     inkscape:window-height="1026"
     inkscape:window-x="0"
     inkscape:window-y="24"
     inkscape:window-maximized="1"
     inkscape:object-nodes="true"
     inkscape:object-paths="true" />
  <metadata
     id="metadata7">
    <rdf:RDF>
      <cc:Work
         rdf:about="">
        <dc:format>image/svg+xml</dc:format>
        <dc:type
           rdf:resource="http://purl.org/dc/dcmitype/StillImage" />
        <dc:title></dc:title>
      </cc:Work>
    </rdf:RDF>
  </metadata>
  <g
     inkscape:groupmode="layer"
     id="layer2"
     inkscape:label="Coloration"
     sodipodi:insensitive="true">
    <rect
       style="fill:#f4f4f4;fill-opacity:1;stroke:none"
       id="rect9017"
       width="1024"
       height="1024"
       x="0"
       y="0" />
  </g>
  <g
     inkscape:groupmode="layer"
     id="layer3"
     inkscape:label="Details"
     style="display:none"
     sodipodi:insensitive="true">
    <g
       id="g3332"
       transform="matrix(0.32982931,0,0,0.32982931,550.14348,476.82642)">
      <path
         style="fill:#fec400"
         d="M 7.8376215,108.89964 C 7.133786,108.46465 6.7698885,107.93654 7.0289603,107.72607 16.855324,99.742978 22.043108,98.515755 46,98.50707 c 18.424296,-0.0067 19.791637,0.124714 24.786706,2.38186 5.071462,2.29168 9.89454,6.76305 8.644063,8.01373 -0.906823,0.90698 -70.1254727,0.90406 -71.5931475,-0.003 z M 231.75,109.32525 c -2.57187,-0.42842 -2.75,-0.78168 -2.75,-5.45362 l 0,-4.995521 32.75,0.311945 c 28.20648,0.268669 33.1662,0.541548 35.75,1.966936 3.75859,2.07347 7.88281,6.41659 7.17726,7.55819 -0.54325,0.879 -67.92968,1.44456 -72.92726,0.61207 z m 122,-0.0841 C 352.37262,108.93593 352,107.80433 352,103.92668 L 352,99 l 28.86351,0 c 31.51758,0 37.37424,0.638211 44.13649,4.80964 9.01093,5.55858 8.30415,5.68373 -32.5,5.75487 -20.35,0.0355 -37.7875,-0.11001 -38.75,-0.32332 z m 179,0.0388 c -2.57882,-0.38711 -2.75,-0.72443 -2.75,-5.41904 l 0,-5.006238 32.75,0.362429 c 35.61397,0.394123 36.09615,0.465735 44.16706,6.559529 2.95905,2.23418 3.17335,2.66547 1.5988,3.2178 -1.98328,0.69569 -71.29333,0.95688 -75.76586,0.28552 z M 189,107.98818 c 0,-1.98867 32.69263,-33.669237 42.75,-41.426597 L 242,58.655646 242.0211,52.077823 C 242.07925,33.94201 255.35533,14.348198 273.19783,6.0649305 283.58594,1.2423153 289.48234,0 301.98385,0 c 27.78624,0 57.1036,13.363744 87.29518,39.791802 9.61062,8.412605 25.33125,24.931254 24.50918,25.753323 -0.24727,0.247265 -3.11327,-0.05086 -6.36889,-0.662493 C 399.58115,63.410071 385.3353,64.377448 376,67.016189 371.875,68.182173 360.92846,72.49124 351.67436,76.591893 327.47483,87.315122 311.89487,91.066137 291.5,91.079414 278.68674,91.087755 271.7021,89.92586 264.36048,86.564757 257.19046,83.282213 252.6275,79.498919 248.30179,73.25 246.30297,70.3625 244.44643,68 244.17615,68 241.5886,68 215.79114,92.887668 206.601,104.25 l -3.84192,4.75 -6.87954,0 C 191.90626,109 189,108.57256 189,107.98818 z M 314.34209,82.427703 c 10.80756,-1.957977 23.70752,-6.432718 35.34829,-12.261616 18.71848,-9.372937 33.22402,-13.034353 46.24541,-11.673033 L 402.5,59.179308 399,55.486659 C 393.01821,49.175615 376.9395,36.106372 366.95678,29.440984 346.64962,15.882062 327.96309,9.1152007 308.5,8.2723237 295.13952,7.6937289 287.70371,9.0107523 278.15063,13.647774 c -6.61286,3.209851 -15.77328,12.16321 -19.39582,18.957403 -2.9476,5.528316 -6.22127,16.831053 -5.3045,18.314416 0.31165,0.50427 4.44655,-0.64765 9.18866,-2.559823 9.68211,-3.904144 22.57474,-7.477662 35.63941,-9.878362 10.36556,-1.904725 15.51734,-1.680316 9.22162,0.40169 -8.29597,2.743492 -39.25831,15.246518 -45.48652,18.368091 -3.56759,1.788071 -6.62348,3.962211 -6.79087,4.831422 -0.51066,2.651633 6.13241,11.197757 11.79933,15.179505 10.58949,7.440497 25.67401,9.087161 47.32015,5.165587 z"
         id="path3283"
         inkscape:connector-curvature="0"
         sodipodi:nodetypes="cssssccsscsssscscsssccsscsssssscssssssssssssscssssscsssssssssssss" />
      <path
         style="fill:#80081b"
         d="M 20.173316,205.57186 C 10.223267,202.33816 3.9644402,195.21048 1.3604996,184.14745 -0.03137663,178.23396 -0.58842599,132.19313 0.64184804,124.75 L 1.2616848,121 l 5.6191576,4.7e-4 5.6191576,4.7e-4 0,29.74953 c 0,31.55496 0.444418,35.21146 4.873172,40.09454 4.13217,4.55608 7.341254,5.44231 20.619105,5.69423 14.184549,0.26912 24.455379,-0.69236 28.647288,-2.68174 4.027125,-1.91118 6.276079,-7.20255 6.767489,-15.92263 L 73.826038,170.5 79.413019,170.2001 85,169.90019 l 0,8.90068 c 0,14.22432 -3.273967,20.58228 -12.893036,25.03797 -5.398009,2.50043 -6.389572,2.60732 -26.606964,2.8682 -15.933291,0.20559 -22.043907,-0.0683 -25.326684,-1.13518 z M 146,189.63762 146,173.27525 128.4217,147.91544 C 118.75364,133.96755 110.62708,122.20562 110.36268,121.77782 110.09829,121.35002 113.03599,121 116.8909,121 l 7.00894,0 12.97796,18.25 c 7.13788,10.0375 13.61867,19.10833 14.40176,20.1574 1.32252,1.77172 2.44694,0.47351 15.8068,-18.25 l 14.383,-20.1574 6.76532,0 c 3.72093,0 6.76532,0.2549 6.76532,0.56644 0,0.31155 -8.325,12.20665 -18.5,26.43356 l -18.5,25.86711 0,16.06645 0,16.06644 -6,0 -6,0 0,-16.36238 z M 229.96712,205.75 c -0.0431,-0.32763 -0.0433,-81.8559 -1.8e-4,-83.5499 0.0241,-0.94781 1.59053,-1.21867 5.78306,-1 l 5.75,0.2999 0,12 0,12 22.5,0 c 25.33837,0 27.23766,-0.41789 30.29175,-6.66499 1.11249,-2.27559 1.87069,-6.35077 2,-10.74954 l 0.20825,-7.08454 5.63342,-4.7e-4 c 5.33938,-4.4e-4 5.66062,0.14181 6.15446,2.72517 0.83764,4.38182 -0.41593,13.47256 -2.40492,17.44016 -1.7873,3.56529 -6.57559,7.83421 -8.78733,7.83421 -2.36967,0 -0.92346,1.8789 1.92832,2.50526 4.20746,0.92411 8.47506,4.78537 10.28302,9.30392 3.46952,8.67118 2.80528,26.13015 -1.30032,34.17779 -2.43203,4.76718 -7.01581,8.64374 -11.7877,9.96902 -3.11084,0.86397 -66.14329,1.61939 -66.25183,0.79401 z M 289,194.91458 c 6.15774,-1.41837 8.6908,-4.10819 10.0544,-10.67663 1.14183,-5.50015 0.65089,-15.28466 -0.97854,-19.50239 -1.4661,-3.79497 -5.47035,-6.68196 -10.63438,-7.66721 C 284.72366,156.54981 273.275,156.20981 262,156.31278 l -20.5,0.18722 -0.18643,18.94836 c -0.10253,10.42159 0.0365,19.30909 0.30902,19.75 0.72805,1.17801 42.10718,0.93016 47.37741,-0.28378 z m 63.5,-31.41456 0,-42.5 5.75,-1e-5 c 4.78378,-1e-5 5.76136,0.29406 5.81758,1.74999 0.0372,0.9625 0.14967,8.05 0.25,15.75 l 0.18242,14 23.5,0 c 21.70151,0 23.75986,-0.15306 26.89547,-2 6.43561,-3.7907 7.53372,-6.35914 7.95273,-18.60112 l 0.37624,-10.99199 5.63778,0.29655 L 434.5,121.5 434.44381,133 c -0.0478,9.77329 -0.38093,12.123 -2.21892,15.64923 -2.34141,4.49205 -6.75335,7.71744 -12.10784,8.85155 l -3.38296,0.71653 5.36801,1.81725 C 432.03303,163.39651 434,168.60655 434,191.54922 L 434,206 l -5.89522,0 -5.89522,0 -0.35478,-15.75 c -0.39971,-17.7447 -1.40937,-20.90729 -7.89016,-24.71462 C 410.75129,163.64763 408.83182,163.5 387.5,163.5 l -23,0 -0.14566,19.5 c -0.0801,10.725 -0.19261,20.2875 -0.25,21.25 -0.0865,1.45167 -1.08457,1.75 -5.85434,1.75001 l -5.75,1e-5 0,-42.5 z m 123.5,-2e-5 0,-42.5 6,0 6,0 0,42.5 0,42.5 -6,0 -6,0 0,-42.5 z m 54,0 0,-42.5 6,0 6,0 0,37.5 0,37.5 21.45078,0 c 26.24293,0 30.54295,-0.75861 36.1841,-6.38358 2.27418,-2.26766 4.69195,-5.92153 5.37281,-8.11972 1.65612,-5.34686 2.55592,-45.64143 1.16412,-52.13118 -0.57443,-2.67849 -1.35504,-5.67943 -1.73468,-6.66875 -0.62638,-1.63234 -0.10653,-1.77092 5.61818,-1.49777 6.0395,0.28817 6.34718,0.42889 7.21749,3.301 1.49146,4.92192 2.10107,41.16879 0.85036,50.56083 -2.0456,15.3611 -8.44295,24.66584 -19.91067,28.95947 -4.85816,1.81895 -7.84232,1.9797 -36.75,1.9797 L 530,206 530,163.5 z M 76.33947,132.19687 72.178939,131.89375 71.83947,126.40442 71.5,120.91509 l 6,0.29246 6,0.29245 0.297781,5.12087 c 0.335525,5.76994 -0.120193,6.11064 -7.458311,5.576 z"
         id="path3281"
         inkscape:connector-curvature="0" />
    </g>
    <g
       transform="matrix(0.32982931,0,0,0.32982931,255.57205,350.54071)"
       id="g9079">
      <path
         sodipodi:nodetypes="cssssccsscsssscscsssccsscsssssscssssssssssssscssssscsssssssssssss"
         inkscape:connector-curvature="0"
         id="path9081"
         d="M 7.8376215,108.89964 C 7.133786,108.46465 6.7698885,107.93654 7.0289603,107.72607 16.855324,99.742978 22.043108,98.515755 46,98.50707 c 18.424296,-0.0067 19.791637,0.124714 24.786706,2.38186 5.071462,2.29168 9.89454,6.76305 8.644063,8.01373 -0.906823,0.90698 -70.1254727,0.90406 -71.5931475,-0.003 z M 231.75,109.32525 c -2.57187,-0.42842 -2.75,-0.78168 -2.75,-5.45362 l 0,-4.995521 32.75,0.311945 c 28.20648,0.268669 33.1662,0.541548 35.75,1.966936 3.75859,2.07347 7.88281,6.41659 7.17726,7.55819 -0.54325,0.879 -67.92968,1.44456 -72.92726,0.61207 z m 122,-0.0841 C 352.37262,108.93593 352,107.80433 352,103.92668 L 352,99 l 28.86351,0 c 31.51758,0 37.37424,0.638211 44.13649,4.80964 9.01093,5.55858 8.30415,5.68373 -32.5,5.75487 -20.35,0.0355 -37.7875,-0.11001 -38.75,-0.32332 z m 179,0.0388 c -2.57882,-0.38711 -2.75,-0.72443 -2.75,-5.41904 l 0,-5.006238 32.75,0.362429 c 35.61397,0.394123 36.09615,0.465735 44.16706,6.559529 2.95905,2.23418 3.17335,2.66547 1.5988,3.2178 -1.98328,0.69569 -71.29333,0.95688 -75.76586,0.28552 z M 189,107.98818 c 0,-1.98867 32.69263,-33.669237 42.75,-41.426597 L 242,58.655646 242.0211,52.077823 C 242.07925,33.94201 255.35533,14.348198 273.19783,6.0649305 283.58594,1.2423153 289.48234,0 301.98385,0 c 27.78624,0 57.1036,13.363744 87.29518,39.791802 9.61062,8.412605 25.33125,24.931254 24.50918,25.753323 -0.24727,0.247265 -3.11327,-0.05086 -6.36889,-0.662493 C 399.58115,63.410071 385.3353,64.377448 376,67.016189 371.875,68.182173 360.92846,72.49124 351.67436,76.591893 327.47483,87.315122 311.89487,91.066137 291.5,91.079414 278.68674,91.087755 271.7021,89.92586 264.36048,86.564757 257.19046,83.282213 252.6275,79.498919 248.30179,73.25 246.30297,70.3625 244.44643,68 244.17615,68 241.5886,68 215.79114,92.887668 206.601,104.25 l -3.84192,4.75 -6.87954,0 C 191.90626,109 189,108.57256 189,107.98818 z M 314.34209,82.427703 c 10.80756,-1.957977 23.70752,-6.432718 35.34829,-12.261616 18.71848,-9.372937 33.22402,-13.034353 46.24541,-11.673033 L 402.5,59.179308 399,55.486659 C 393.01821,49.175615 376.9395,36.106372 366.95678,29.440984 346.64962,15.882062 327.96309,9.1152007 308.5,8.2723237 295.13952,7.6937289 287.70371,9.0107523 278.15063,13.647774 c -6.61286,3.209851 -15.77328,12.16321 -19.39582,18.957403 -2.9476,5.528316 -6.22127,16.831053 -5.3045,18.314416 0.31165,0.50427 4.44655,-0.64765 9.18866,-2.559823 9.68211,-3.904144 22.57474,-7.477662 35.63941,-9.878362 10.36556,-1.904725 15.51734,-1.680316 9.22162,0.40169 -8.29597,2.743492 -39.25831,15.246518 -45.48652,18.368091 -3.56759,1.788071 -6.62348,3.962211 -6.79087,4.831422 -0.51066,2.651633 6.13241,11.197757 11.79933,15.179505 10.58949,7.440497 25.67401,9.087161 47.32015,5.165587 z"
         style="fill:#fec400" />
      <path
         inkscape:connector-curvature="0"
         id="path9083"
         d="M 20.173316,205.57186 C 10.223267,202.33816 3.9644402,195.21048 1.3604996,184.14745 -0.03137663,178.23396 -0.58842599,132.19313 0.64184804,124.75 L 1.2616848,121 l 5.6191576,4.7e-4 5.6191576,4.7e-4 0,29.74953 c 0,31.55496 0.444418,35.21146 4.873172,40.09454 4.13217,4.55608 7.341254,5.44231 20.619105,5.69423 14.184549,0.26912 24.455379,-0.69236 28.647288,-2.68174 4.027125,-1.91118 6.276079,-7.20255 6.767489,-15.92263 L 73.826038,170.5 79.413019,170.2001 85,169.90019 l 0,8.90068 c 0,14.22432 -3.273967,20.58228 -12.893036,25.03797 -5.398009,2.50043 -6.389572,2.60732 -26.606964,2.8682 -15.933291,0.20559 -22.043907,-0.0683 -25.326684,-1.13518 z M 146,189.63762 146,173.27525 128.4217,147.91544 C 118.75364,133.96755 110.62708,122.20562 110.36268,121.77782 110.09829,121.35002 113.03599,121 116.8909,121 l 7.00894,0 12.97796,18.25 c 7.13788,10.0375 13.61867,19.10833 14.40176,20.1574 1.32252,1.77172 2.44694,0.47351 15.8068,-18.25 l 14.383,-20.1574 6.76532,0 c 3.72093,0 6.76532,0.2549 6.76532,0.56644 0,0.31155 -8.325,12.20665 -18.5,26.43356 l -18.5,25.86711 0,16.06645 0,16.06644 -6,0 -6,0 0,-16.36238 z M 229.96712,205.75 c -0.0431,-0.32763 -0.0433,-81.8559 -1.8e-4,-83.5499 0.0241,-0.94781 1.59053,-1.21867 5.78306,-1 l 5.75,0.2999 0,12 0,12 22.5,0 c 25.33837,0 27.23766,-0.41789 30.29175,-6.66499 1.11249,-2.27559 1.87069,-6.35077 2,-10.74954 l 0.20825,-7.08454 5.63342,-4.7e-4 c 5.33938,-4.4e-4 5.66062,0.14181 6.15446,2.72517 0.83764,4.38182 -0.41593,13.47256 -2.40492,17.44016 -1.7873,3.56529 -6.57559,7.83421 -8.78733,7.83421 -2.36967,0 -0.92346,1.8789 1.92832,2.50526 4.20746,0.92411 8.47506,4.78537 10.28302,9.30392 3.46952,8.67118 2.80528,26.13015 -1.30032,34.17779 -2.43203,4.76718 -7.01581,8.64374 -11.7877,9.96902 -3.11084,0.86397 -66.14329,1.61939 -66.25183,0.79401 z M 289,194.91458 c 6.15774,-1.41837 8.6908,-4.10819 10.0544,-10.67663 1.14183,-5.50015 0.65089,-15.28466 -0.97854,-19.50239 -1.4661,-3.79497 -5.47035,-6.68196 -10.63438,-7.66721 C 284.72366,156.54981 273.275,156.20981 262,156.31278 l -20.5,0.18722 -0.18643,18.94836 c -0.10253,10.42159 0.0365,19.30909 0.30902,19.75 0.72805,1.17801 42.10718,0.93016 47.37741,-0.28378 z m 63.5,-31.41456 0,-42.5 5.75,-1e-5 c 4.78378,-1e-5 5.76136,0.29406 5.81758,1.74999 0.0372,0.9625 0.14967,8.05 0.25,15.75 l 0.18242,14 23.5,0 c 21.70151,0 23.75986,-0.15306 26.89547,-2 6.43561,-3.7907 7.53372,-6.35914 7.95273,-18.60112 l 0.37624,-10.99199 5.63778,0.29655 L 434.5,121.5 434.44381,133 c -0.0478,9.77329 -0.38093,12.123 -2.21892,15.64923 -2.34141,4.49205 -6.75335,7.71744 -12.10784,8.85155 l -3.38296,0.71653 5.36801,1.81725 C 432.03303,163.39651 434,168.60655 434,191.54922 L 434,206 l -5.89522,0 -5.89522,0 -0.35478,-15.75 c -0.39971,-17.7447 -1.40937,-20.90729 -7.89016,-24.71462 C 410.75129,163.64763 408.83182,163.5 387.5,163.5 l -23,0 -0.14566,19.5 c -0.0801,10.725 -0.19261,20.2875 -0.25,21.25 -0.0865,1.45167 -1.08457,1.75 -5.85434,1.75001 l -5.75,1e-5 0,-42.5 z m 123.5,-2e-5 0,-42.5 6,0 6,0 0,42.5 0,42.5 -6,0 -6,0 0,-42.5 z m 54,0 0,-42.5 6,0 6,0 0,37.5 0,37.5 21.45078,0 c 26.24293,0 30.54295,-0.75861 36.1841,-6.38358 2.27418,-2.26766 4.69195,-5.92153 5.37281,-8.11972 1.65612,-5.34686 2.55592,-45.64143 1.16412,-52.13118 -0.57443,-2.67849 -1.35504,-5.67943 -1.73468,-6.66875 -0.62638,-1.63234 -0.10653,-1.77092 5.61818,-1.49777 6.0395,0.28817 6.34718,0.42889 7.21749,3.301 1.49146,4.92192 2.10107,41.16879 0.85036,50.56083 -2.0456,15.3611 -8.44295,24.66584 -19.91067,28.95947 -4.85816,1.81895 -7.84232,1.9797 -36.75,1.9797 L 530,206 530,163.5 z M 76.33947,132.19687 72.178939,131.89375 71.83947,126.40442 71.5,120.91509 l 6,0.29246 6,0.29245 0.297781,5.12087 c 0.335525,5.76994 -0.120193,6.11064 -7.458311,5.576 z"
         style="fill:#80081b" />
    </g>
    <flowRoot
       xml:space="preserve"
       id="flowRoot11330"
       style="font-size:40px;font-style:normal;font-weight:normal;line-height:125%;letter-spacing:0px;word-spacing:0px;fill:#de000d;fill-opacity:1;stroke:none;display:inline;font-family:Sans"
       transform="matrix(0,0.38614774,-0.38614774,0,335.83578,581.25585)"><flowRegion
         id="flowRegion11332"><rect
           id="rect11334"
           width="319.28571"
           height="108.5714"
           x="96.428574"
           y="623.28571"
           style="fill:#de000d" /></flowRegion><flowPara
         id="flowPara11336"
         style="font-weight:bold;-inkscape-font-specification:Sans Bold">CAUTION</flowPara></flowRoot>    <flowRoot
       transform="matrix(0,0.38614774,-0.38614774,0,335.83578,862.39871)"
       style="font-size:40px;font-style:normal;font-weight:normal;line-height:125%;letter-spacing:0px;word-spacing:0px;fill:#de000d;fill-opacity:1;stroke:none;display:inline;font-family:Sans"
       id="flowRoot11338"
       xml:space="preserve"><flowRegion
         id="flowRegion11340"><rect
           style="fill:#de000d"
           y="623.28571"
           x="96.428574"
           height="108.5714"
           width="319.28571"
           id="rect11342" /></flowRegion><flowPara
         style="font-weight:bold;-inkscape-font-specification:Sans Bold"
         id="flowPara11344">CAUTION</flowPara></flowRoot>  </g>
  <g
     inkscape:groupmode="layer"
     id="layer4"
     inkscape:label="Lines"
     style="display:inline">
    <path
       style="fill:none;stroke:#010101"
       d="m 495.46875,430.53125 0,-58.84375 c 0,-5.80837 -0.24095,-10.46875 -10.46875,-10.46875 l -121.09375,0 -121.09375,0 c -10.2278,0 -10.46875,4.66038 -10.46875,10.46875 l 0,58.84375"
       id="path9088"
       inkscape:connector-curvature="0"
       sodipodi:nodetypes="csscssc" />
    <path
       sodipodi:nodetypes="csscssc"
       inkscape:connector-curvature="0"
       id="path9094"
       d="m 790.4536,556.31555 0,-58.84375 c 0,-5.80837 -0.24095,-10.46875 -10.46875,-10.46875 l -121.09375,0 -121.09375,0 c -10.2278,0 -10.46875,4.66038 -10.46875,10.46875 l 0,58.84375"
       style="fill:none;stroke:#010101" />
    <rect
       style="fill:none;stroke:#010101;stroke-width:1;stroke-linecap:round;stroke-linejoin:round;stroke-miterlimit:4;stroke-dasharray:none;stroke-dashoffset:0"
       id="rect9096"
       width="164.65486"
       height="105.05586"
       x="672.7616"
       y="884.59894"
       rx="10"
       ry="10" />
    <rect
       ry="10"
       rx="10"
       y="606.59894"
       x="672.7616"
       height="105.05586"
       width="164.65486"
       id="rect9098"
       style="fill:none;stroke:#010101;stroke-width:1;stroke-linecap:round;stroke-linejoin:round;stroke-miterlimit:4;stroke-dasharray:none;stroke-dashoffset:0" />
    <path
       style="fill:none;stroke:#010101;stroke-width:1;stroke-linecap:round;stroke-linejoin:round;stroke-miterlimit:4;stroke-dasharray:none;stroke-dashoffset:0"
       d="m 527.3286,521.14286 -48.75717,0 L 281.42857,529 60.714286,519.71429 30,519.71429"
       id="path11322"
       inkscape:connector-curvature="0" />
    <path
       inkscape:connector-curvature="0"
       id="path11324"
       d="m 495.46875,395.42857 48.75717,0 197.14286,7.85714 L 962.08306,394 l 30.71429,0"
       style="fill:none;stroke:#010101;stroke-width:1;stroke-linecap:round;stroke-linejoin:round;stroke-miterlimit:4;stroke-dasharray:none;stroke-dashoffset:0" />
    <path
       style="fill:none;stroke:#010101;stroke-width:1;stroke-linecap:round;stroke-linejoin:round;stroke-miterlimit:4;stroke-dasharray:none;stroke-dashoffset:0"
       d="m 837.41646,635.07096 119.70308,0 0,44.95179 -119.70308,0"
       id="path11326"
       inkscape:connector-curvature="0" />
    <path
       inkscape:connector-curvature="0"
       id="path11328"
       d="m 837.41646,915.64239 119.70308,0 0,44.95179 -119.70308,0"
       style="fill:none;stroke:#010101;stroke-width:1;stroke-linecap:round;stroke-linejoin:round;stroke-miterlimit:4;stroke-dasharray:none;stroke-dashoffset:0" />
  </g>
  <g
     inkscape:groupmode="layer"
     id="layer5"
     inkscape:label="Vents">
    <g
       style="display:inline"
       id="g11354">
      <g
         id="g11312">
        <rect
           style="fill:#9c9291;stroke:#ffffff;stroke-width:1;stroke-linecap:round;stroke-linejoin:round;stroke-miterlimit:4;stroke-dasharray:none;stroke-dashoffset:0"
           id="rect9100"
           width="59.598999"
           height="106.57109"
           x="16.162441"
           y="883.08374"
           rx="0"
           ry="0" />
        <rect
           ry="0"
           rx="0"
           y="883.08374"
           x="16.162441"
           height="106.57109"
           width="59.598999"
           id="rect9102"
           style="fill:url(#pattern11310);fill-opacity:1;stroke:#ffffff;stroke-width:1;stroke-linecap:round;stroke-linejoin:round;stroke-miterlimit:4;stroke-dasharray:none;stroke-dashoffset:0" />
      </g>
      <g
         transform="translate(0,-276.8021)"
         id="g11316">
        <rect
           ry="0"
           rx="0"
           y="883.08374"
           x="16.162441"
           height="106.57109"
           width="59.598999"
           id="rect11318"
           style="fill:#9c9291;stroke:#ffffff;stroke-width:1;stroke-linecap:round;stroke-linejoin:round;stroke-miterlimit:4;stroke-dasharray:none;stroke-dashoffset:0" />
        <rect
           style="fill:url(#pattern11310);fill-opacity:1;stroke:#ffffff;stroke-width:1;stroke-linecap:round;stroke-linejoin:round;stroke-miterlimit:4;stroke-dasharray:none;stroke-dashoffset:0"
           id="rect11320"
           width="59.598999"
           height="106.57109"
           x="16.162441"
           y="883.08374"
           rx="0"
           ry="0" />
      </g>
    </g>
  </g>
  <g
     inkscape:label="Image"
     inkscape:groupmode="layer"
     id="layer1"
     transform="translate(0,-28.362183)"
     sodipodi:insensitive="true"
     style="display:none;filter:url(#filter9020)">
    <image
       y="28.362183"
       x="0"
       id="image8994"
       xlink:href="file:///home/nick/Ratman/Assets/3D%20Assets/Bus/Textures/Engine%20UV.png"
       height="1024"
       width="1024" />
  </g>
</svg>
